<svg width="320" height="320" viewBox="0 0 320 320" xmlns="http://www.w3.org/2000/svg" shape-rendering="crispEdges"><rect width="100%" height="100%" fill="#d5d7e1" /><rect width="100" height="10" x="110" y="260" fill="#fd8b5b" /><rect width="100" height="10" x="110" y="270" fill="#fd8b5b" /><rect width="20" height="10" x="110" y="280" fill="#fd8b5b" /><rect width="70" height="10" x="140" y="280" fill="#fd8b5b" /><rect width="20" height="10" x="110" y="290" fill="#fd8b5b" /><rect width="70" height="10" x="140" y="290" fill="#fd8b5b" /><rect width="20" height="10" x="110" y="300" fill="#fd8b5b" /><rect width="70" height="10" x="140" y="300" fill="#fd8b5b" /><rect width="20" height="10" x="110" y="310" fill="#fd8b5b" /><rect width="70" height="10" x="140" y="310" fill="#fd8b5b" /><rect width="100" height="10" x="110" y="260" fill="#667af9" /><rect width="100" height="10" x="110" y="270" fill="#667af9" /><rect width="10" height="10" x="110" y="280" fill="#667af9" /><rect width="10" height="10" x="120" y="280" fill="#4da2ff" /><rect width="10" height="10" x="140" y="280" fill="#4da2ff" /><rect width="10" height="10" x="150" y="280" fill="#667af9" /><rect width="10" height="10" x="160" y="280" fill="#4da2ff" /><rect width="10" height="10" x="170" y="280" fill="#667af9" /><rect width="10" height="10" x="180" y="280" fill="#4da2ff" /><rect width="10" height="10" x="190" y="280" fill="#667af9" /><rect width="10" height="10" x="200" y="280" fill="#4da2ff" /><rect width="20" height="10" x="110" y="290" fill="#4da2ff" /><rect width="70" height="10" x="140" y="290" fill="#4da2ff" /><rect width="10" height="10" x="110" y="300" fill="#4da2ff" /><rect width="10" height="10" x="120" y="300" fill="#97f2fb" /><rect width="10" height="10" x="140" y="300" fill="#97f2fb" /><rect width="10" height="10" x="150" y="300" fill="#4da2ff" /><rect width="10" height="10" x="160" y="300" fill="#97f2fb" /><rect width="10" height="10" x="170" y="300" fill="#4da2ff" /><rect width="10" height="10" x="180" y="300" fill="#97f2fb" /><rect width="10" height="10" x="190" y="300" fill="#4da2ff" /><rect width="10" height="10" x="200" y="300" fill="#97f2fb" /><rect width="20" height="10" x="110" y="310" fill="#97f2fb" /><rect width="70" height="10" x="140" y="310" fill="#97f2fb" /><rect width="260" height="10" x="30" y="140" fill="#aaa6a4" /><rect width="10" height="10" x="30" y="150" fill="#aaa6a4" /><rect width="10" height="10" x="280" y="150" fill="#aaa6a4" /><rect width="10" height="10" x="30" y="160" fill="#aaa6a4" /><rect width="10" height="10" x="280" y="160" fill="#aaa6a4" /><rect width="10" height="10" x="30" y="170" fill="#aaa6a4" /><rect width="10" height="10" x="280" y="170" fill="#aaa6a4" /><rect width="10" height="10" x="30" y="180" fill="#aaa6a4" /><rect width="160" height="10" x="70" y="180" fill="#aaa6a4" /><rect width="10" height="10" x="280" y="180" fill="#aaa6a4" /><rect width="10" height="10" x="30" y="190" fill="#aaa6a4" /><rect width="10" height="10" x="70" y="190" fill="#aaa6a4" /><rect width="10" height="10" x="280" y="190" fill="#aaa6a4" /><rect width="10" height="10" x="30" y="200" fill="#aaa6a4" /><rect width="10" height="10" x="70" y="200" fill="#aaa6a4" /><rect width="10" height="10" x="280" y="200" fill="#aaa6a4" /><rect width="10" height="10" x="30" y="210" fill="#aaa6a4" /><rect width="10" height="10" x="70" y="210" fill="#aaa6a4" /><rect width="10" height="10" x="280" y="210" fill="#aaa6a4" /><rect width="10" height="10" x="30" y="220" fill="#aaa6a4" /><rect width="10" height="10" x="70" y="220" fill="#aaa6a4" /><rect width="10" height="10" x="280" y="220" fill="#aaa6a4" /><rect width="10" height="10" x="30" y="230" fill="#aaa6a4" /><rect width="220" height="10" x="70" y="230" fill="#aaa6a4" /><rect width="10" height="10" x="30" y="240" fill="#aaa6a4" /><rect width="200" height="10" x="30" y="250" fill="#aaa6a4" /><rect width="80" height="10" x="80" y="140" fill="#d7d3cd" /><rect width="80" height="10" x="170" y="140" fill="#d7d3cd" /><rect width="10" height="10" x="80" y="150" fill="#d7d3cd" /><rect width="20" height="10" x="90" y="150" fill="#ffffff" /><rect width="40" height="10" x="110" y="150" fill="#000000" /><rect width="10" height="10" x="150" y="150" fill="#d7d3cd" /><rect width="10" height="10" x="170" y="150" fill="#d7d3cd" /><rect width="20" height="10" x="180" y="150" fill="#ffffff" /><rect width="40" height="10" x="200" y="150" fill="#000000" /><rect width="10" height="10" x="240" y="150" fill="#d7d3cd" /><rect width="10" height="10" x="80" y="160" fill="#d7d3cd" /><rect width="20" height="10" x="90" y="160" fill="#ffffff" /><rect width="40" height="10" x="110" y="160" fill="#000000" /><rect width="10" height="10" x="150" y="160" fill="#d7d3cd" /><rect width="10" height="10" x="170" y="160" fill="#d7d3cd" /><rect width="20" height="10" x="180" y="160" fill="#ffffff" /><rect width="40" height="10" x="200" y="160" fill="#000000" /><rect width="10" height="10" x="240" y="160" fill="#d7d3cd" /><rect width="40" height="10" x="50" y="170" fill="#d7d3cd" /><rect width="20" height="10" x="90" y="170" fill="#ffffff" /><rect width="40" height="10" x="110" y="170" fill="#000000" /><rect width="30" height="10" x="150" y="170" fill="#d7d3cd" /><rect width="20" height="10" x="180" y="170" fill="#ffffff" /><rect width="40" height="10" x="200" y="170" fill="#000000" /><rect width="10" height="10" x="240" y="170" fill="#d7d3cd" /><rect width="10" height="10" x="50" y="180" fill="#d7d3cd" /><rect width="10" height="10" x="80" y="180" fill="#d7d3cd" /><rect width="20" height="10" x="90" y="180" fill="#ffffff" /><rect width="40" height="10" x="110" y="180" fill="#000000" /><rect width="10" height="10" x="150" y="180" fill="#d7d3cd" /><rect width="10" height="10" x="170" y="180" fill="#d7d3cd" /><rect width="20" height="10" x="180" y="180" fill="#ffffff" /><rect width="40" height="10" x="200" y="180" fill="#000000" /><rect width="10" height="10" x="240" y="180" fill="#d7d3cd" /><rect width="10" height="10" x="50" y="190" fill="#d7d3cd" /><rect width="10" height="10" x="80" y="190" fill="#d7d3cd" /><rect width="20" height="10" x="90" y="190" fill="#ffffff" /><rect width="40" height="10" x="110" y="190" fill="#000000" /><rect width="10" height="10" x="150" y="190" fill="#d7d3cd" /><rect width="10" height="10" x="170" y="190" fill="#d7d3cd" /><rect width="20" height="10" x="180" y="190" fill="#ffffff" /><rect width="40" height="10" x="200" y="190" fill="#000000" /><rect width="10" height="10" x="240" y="190" fill="#d7d3cd" /><rect width="10" height="10" x="80" y="200" fill="#d7d3cd" /><rect width="20" height="10" x="90" y="200" fill="#ffffff" /><rect width="40" height="10" x="110" y="200" fill="#000000" /><rect width="10" height="10" x="150" y="200" fill="#d7d3cd" /><rect width="10" height="10" x="170" y="200" fill="#d7d3cd" /><rect width="20" height="10" x="180" y="200" fill="#ffffff" /><rect width="40" height="10" x="200" y="200" fill="#000000" /><rect width="10" height="10" x="240" y="200" fill="#d7d3cd" /><rect width="80" height="10" x="80" y="210" fill="#d7d3cd" /><rect width="80" height="10" x="170" y="210" fill="#d7d3cd" /></svg>